<svg id="Page-1" xmlns="http://www.w3.org/2000/svg" width="16.429" height="16.428" viewBox="0 0 16.429 16.428">
  <g id="_003---Call" data-name="003---Call">
    <path id="Shape" d="M7.8,9.668A6.63,6.63,0,0,1,5.8,5.9a.563.563,0,0,1,.162-.471L7.229,4.164a.566.566,0,0,0,.08-.7L5.288.326A.566.566,0,0,0,4.554.119L1.311,1.647A.563.563,0,0,0,1,2.21a15.678,15.678,0,0,0,4.774,9.484,15.673,15.673,0,0,0,9.484,4.774.563.563,0,0,0,.563-.312l1.528-3.243a.566.566,0,0,0-.205-.733l-3.137-2.02a.566.566,0,0,0-.7.079l-1.268,1.269a.563.563,0,0,1-.471.162,6.63,6.63,0,0,1-3.764-2Z" transform="translate(-0.997 -0.043)" fill="#b5b5b5"/>
    <path id="Shape-2" data-name="Shape" d="M33.382,15.948a.566.566,0,0,1-.566-.566,4.253,4.253,0,0,0-4.249-4.249.566.566,0,0,1,0-1.133,5.387,5.387,0,0,1,5.382,5.382A.566.566,0,0,1,33.382,15.948Z" transform="translate(-20.352 -7.168)" fill="#b5b5b5"/>
    <path id="Shape-3" data-name="Shape" d="M36.214,8.78a.566.566,0,0,1-.566-.566,7.089,7.089,0,0,0-7.081-7.081.566.566,0,0,1,0-1.133A8.223,8.223,0,0,1,36.78,8.214a.566.566,0,0,1-.566.566Z" transform="translate(-20.352)" fill="#b5b5b5"/>
  </g>
</svg>
