<svg id="Layer_1" width="24.39" height="24.39" data-name="Layer 1" xmlns="http://www.w3.org/2000/svg" viewBox="0 0 24.39 24.39"><defs><style>.cls-1{fill:#fff;opacity:0.7;}.cls-2{fill:#212121;fill-rule:evenodd;}</style></defs><title>twitter</title><rect class="cls-1" width="24.39" height="24.39" rx="12.19"/><g id="Layer_1-2" data-name="Layer 1-2"><path class="cls-2" d="M306.31,415.69a7.57,7.57,0,0,1-1.45,1.54.27.27,0,0,0-.14.29,10.56,10.56,0,0,1-2.52,7.07,9.53,9.53,0,0,1-6,3.39,10.34,10.34,0,0,1-7.2-1.4l-.14-.05a7.63,7.63,0,0,0,3.77-.64,6.42,6.42,0,0,0,1.51-.9,3.5,3.5,0,0,1-1.55-.4,3.67,3.67,0,0,1-1.73-1.91c-.08-.21-.08-.21.16-.19a2.82,2.82,0,0,0,1.32-.1,4,4,0,0,1-.87-.32,3.62,3.62,0,0,1-2-3.08c0-.17,0-.18.18-.11a3.19,3.19,0,0,0,1.42.37,5,5,0,0,1-.62-.5,3.67,3.67,0,0,1-.56-4.15c.08-.17.12-.17.25,0a10.22,10.22,0,0,0,6.3,3.52l.81.09c.17,0,.2,0,.17-.2a3.63,3.63,0,0,1,3-4.2,3.68,3.68,0,0,1,3.12.94.36.36,0,0,0,.39.1,7.5,7.5,0,0,0,1.94-.75L306,414a3.65,3.65,0,0,1-1.53,2,6.55,6.55,0,0,0,1.94-.51A.21.21,0,0,1,306.31,415.69Z" transform="translate(-285.44 -408.75)"/></g></svg>