<svg id="children" xmlns="http://www.w3.org/2000/svg" width="89.617" height="107.399" viewBox="0 0 89.617 107.399">
  <path id="Path_10492" data-name="Path 10492" d="M123.606,68.67h1.286A7.138,7.138,0,0,0,132,61.521v-.044a7.169,7.169,0,0,0-4.325-6.586V51.182h.944a2.2,2.2,0,0,0,2.2-2.2V47.512a5.773,5.773,0,0,0-3.146-5.135v-4.3a14.175,14.175,0,0,0-14.159-14.159H98.74q1.2-.857,2.314-1.816a10.611,10.611,0,0,0,2.555-11.465l-.119-.286A9.087,9.087,0,0,0,91.823,5.317c-.127.049-.172-.076-.175-.175A5.279,5.279,0,0,0,86.354,0H84.859c-15.328,0-23.2,6.888-26.532,10.994a5.128,5.128,0,0,1-3.874,1.88,1.489,1.489,0,0,0-.2-.01A8.376,8.376,0,0,0,45.87,21.23V31.695a7.169,7.169,0,0,0-3.485,6.154v.044a7.138,7.138,0,0,0,7.11,7.149h1.766a21.743,21.743,0,0,0,13.046,16.1v4.382H54.919A11.329,11.329,0,0,0,43.6,76.839a1.573,1.573,0,0,0,3.146,0,8.179,8.179,0,0,1,8.17-8.17h9.538a8.275,8.275,0,0,0,8.121,6.7H72.6a8.289,8.289,0,0,0,8.1-6.7h.287a21.743,21.743,0,0,0,13.039,16.1v4.9H84.636A11.329,11.329,0,0,0,73.32,100.98v3.273H46.749V84.181a1.573,1.573,0,1,0-3.146,0v20.6a2.625,2.625,0,0,0,2.622,2.622h68.77a1.573,1.573,0,1,0,0-3.146H76.466V100.98a8.179,8.179,0,0,1,8.17-8.17h9.538a8.275,8.275,0,0,0,8.122,6.7h.019a8.289,8.289,0,0,0,8.1-6.7h9.54a8.179,8.179,0,0,1,8.17,8.17v3.273h-5.789a1.573,1.573,0,1,0,0,3.146h6.313a2.625,2.625,0,0,0,2.622-2.622v-3.8a11.329,11.329,0,0,0-11.316-11.317h-9.388v-4.9a21.742,21.742,0,0,0,13.039-16.1Zm5.25-7.193v.044a3.988,3.988,0,0,1-3.964,4h-.943c.009-.261.016-.522.016-.785V57.465h.928A3.992,3.992,0,0,1,128.856,61.477Zm-4.325-7.158h-3.565a3.3,3.3,0,0,1-3.29-3.136h6.855v3.136Zm3.146-6.283H76.914v-.524a2.625,2.625,0,0,1,2.622-2.622h45.519a2.625,2.625,0,0,1,2.622,2.622ZM79.314,65.523l-.036,0-.037,0h-.029a3.988,3.988,0,0,1-3.964-4v-.044a3.993,3.993,0,0,1,3.964-4.012h1.415v7.274c0,.263.007.524.016.785Zm4.316-11.2H80.036V51.182h6.885a3.291,3.291,0,0,1-3.291,3.136ZM105.18,27.06A6.825,6.825,0,0,1,112,33.877v7.866h-19.4V33.877a6.825,6.825,0,0,1,6.817-6.817Zm-13.025,0a9.925,9.925,0,0,0-2.707,6.817v7.866H80.061V38.072A11.025,11.025,0,0,1,91.073,27.06Zm32.376,11.013v3.671h-9.387V33.877a9.925,9.925,0,0,0-2.707-6.817h1.082A11.025,11.025,0,0,1,124.531,38.072ZM49.017,21.23a5.23,5.23,0,0,1,5.095-5.217,1.837,1.837,0,0,0,.2.01,8.267,8.267,0,0,0,6.464-3.046c2.977-3.671,10.065-9.83,24.088-9.83h1.494a2.1,2.1,0,0,1,2.149,2.1c0,.037,0,.073,0,.109a3.274,3.274,0,0,0,4.457,2.894l.057-.023a5.93,5.93,0,0,1,7.558,3.312l.118.285A7.506,7.506,0,0,1,99,19.712a29.988,29.988,0,0,1-6.069,4.047,1.581,1.581,0,0,0-.245.154H91.073a14.086,14.086,0,0,0-8.7,3,1.594,1.594,0,0,0-.4-.015c-1.093.107-2.218.161-3.343.161H60.239a3.675,3.675,0,0,0-3.671,3.671v5.788a1.043,1.043,0,0,1-1.029,1.029h-1.49V32.264a1.573,1.573,0,0,0-1.573-1.573H49.5c-.161,0-.32.007-.479.018ZM49.5,41.9a3.988,3.988,0,0,1-3.964-4v-.044A3.993,3.993,0,0,1,49.5,33.838H50.9v7.274c0,.263.007.524.016.785Zm4.554-.785v-.417h1.49a4.18,4.18,0,0,0,4.176-4.176V30.73a.531.531,0,0,1,.524-.524h18.39c.228,0,.455,0,.683-.008a14.077,14.077,0,0,0-2.4,7.874v4.3a5.773,5.773,0,0,0-3.146,5.135v1.426a8.608,8.608,0,0,1-6.8-2.013,1.573,1.573,0,1,0-2.037,2.4,11.8,11.8,0,0,0,7.648,2.851,11.589,11.589,0,0,0,4.315-.839v3.378a7.167,7.167,0,0,0-4.546,4.917A18.542,18.542,0,0,1,54.049,41.111ZM72.591,72.22h-.012a5.125,5.125,0,0,1-5.125-5.125V62.168a21.626,21.626,0,0,0,4.76.608,7.152,7.152,0,0,0,5.3,5.688,5.136,5.136,0,0,1-4.926,3.757Zm11.183-7.481V57.462a6.438,6.438,0,0,0,6.3-6.279h24.454a6.45,6.45,0,0,0,6.293,6.279v7.277a18.522,18.522,0,1,1-37.044,0Zm23.648,26.5a5.125,5.125,0,1,1-10.251,0V85.793a21.7,21.7,0,0,0,10.251,0v5.443Z" transform="translate(-42.385 0)" fill="#eae2d0"/>
  <path id="Path_10493" data-name="Path 10493" d="M304.914,335.117a1.573,1.573,0,0,0-2.217-.191,8.574,8.574,0,0,1-11.237,0,1.573,1.573,0,1,0-2.037,2.4,11.674,11.674,0,0,0,15.3,0A1.573,1.573,0,0,0,304.914,335.117Z" transform="translate(-237.165 -264.379)" fill="#eae2d0"/>
</svg>
