<svg id="right-arrow" xmlns="http://www.w3.org/2000/svg" width="14.392" height="11.393" viewBox="0 0 14.392 11.393">
  <path id="Path_10067" data-name="Path 10067" d="M14.369,59.141a.3.3,0,0,0-.065-.327l-5.4-5.4a.3.3,0,0,0-.424.424l4.885,4.885H.3a.3.3,0,0,0,0,.6H13.368L8.483,64.211a.3.3,0,0,0,.417.431l.007-.007,5.4-5.4A.3.3,0,0,0,14.369,59.141Z" transform="translate(0 -53.333)" fill="#fff"/>
  <path id="Path_10068" data-name="Path 10068" d="M298.947,64.744a.3.3,0,0,1-.212-.512l5.185-5.185-5.185-5.185a.3.3,0,0,1,.424-.424l5.4,5.4a.3.3,0,0,1,0,.424l-5.4,5.4A.3.3,0,0,1,298.947,64.744Z" transform="translate(-290.252 -53.354)" fill="#fff"/>
  <path id="Path_10069" data-name="Path 10069" d="M14.092,245.813H.3a.3.3,0,1,1,0-.6H14.092a.3.3,0,1,1,0,.6Z" transform="translate(0 -239.819)" fill="#fff"/>
</svg>
