<svg xmlns="http://www.w3.org/2000/svg" width="24.39" height="24.39" viewBox="0 0 24.39 24.39">
  <g id="instagram" opacity="0.705">
    <path id="Path_9493" data-name="Path 9493" d="M211.668,209.334A2.334,2.334,0,1,1,209.334,207,2.334,2.334,0,0,1,211.668,209.334Zm0,0" transform="translate(-197.139 -197.139)" fill="#fff"/>
    <g id="Group_4541" data-name="Group 4541">
      <path id="Path_9494" data-name="Path 9494" d="M146.684,137.1a2.319,2.319,0,0,0-1.329-1.329,3.874,3.874,0,0,0-1.3-.241c-.739-.034-.96-.041-2.83-.041s-2.091.007-2.83.041a3.877,3.877,0,0,0-1.3.241,2.32,2.32,0,0,0-1.329,1.329,3.875,3.875,0,0,0-.241,1.3c-.034.738-.041.96-.041,2.83s.007,2.091.041,2.83a3.874,3.874,0,0,0,.241,1.3,2.319,2.319,0,0,0,1.329,1.329,3.87,3.87,0,0,0,1.3.241c.738.034.96.041,2.83.041s2.092-.007,2.83-.041a3.87,3.87,0,0,0,1.3-.241,2.319,2.319,0,0,0,1.329-1.329,3.878,3.878,0,0,0,.241-1.3c.034-.739.041-.96.041-2.83s-.007-2.091-.041-2.83A3.87,3.87,0,0,0,146.684,137.1Zm-5.459,7.726a3.6,3.6,0,1,1,3.6-3.6A3.6,3.6,0,0,1,141.225,144.825Zm3.738-6.493a.84.84,0,1,1,.84-.84A.84.84,0,0,1,144.963,138.331Zm0,0" transform="translate(-129.03 -129.034)" fill="#fff"/>
      <path id="Path_9495" data-name="Path 9495" d="M12.195,0A12.195,12.195,0,1,0,24.39,12.195,12.2,12.2,0,0,0,12.195,0Zm6.96,15.082a5.138,5.138,0,0,1-.325,1.7,3.581,3.581,0,0,1-2.048,2.048,5.141,5.141,0,0,1-1.7.325c-.747.034-.985.042-2.887.042s-2.14-.008-2.887-.042a5.141,5.141,0,0,1-1.7-.325A3.581,3.581,0,0,1,5.56,16.782a5.136,5.136,0,0,1-.325-1.7c-.034-.747-.042-.985-.042-2.887s.008-2.14.042-2.887a5.138,5.138,0,0,1,.325-1.7A3.583,3.583,0,0,1,7.608,5.56a5.142,5.142,0,0,1,1.7-.325c.747-.034.985-.042,2.887-.042s2.14.008,2.887.042a5.144,5.144,0,0,1,1.7.325A3.582,3.582,0,0,1,18.83,7.608a5.137,5.137,0,0,1,.326,1.7c.034.747.042.985.042,2.887S19.19,14.335,19.155,15.082Zm0,0" fill="#fff"/>
    </g>
  </g>
</svg>
