<svg xmlns="http://www.w3.org/2000/svg" width="15.217" height="19.744" viewBox="0 0 15.217 19.744">
  <g id="location" transform="translate(-24.89)">
    <path id="Path_10489" data-name="Path 10489" d="M32.5,0A7.617,7.617,0,0,0,24.89,7.609a13.491,13.491,0,0,0,3.63,8.77,19.236,19.236,0,0,0,3.605,3.254.682.682,0,0,0,.746,0,19.239,19.239,0,0,0,3.605-3.254,13.491,13.491,0,0,0,3.63-8.77A7.618,7.618,0,0,0,32.5,0Zm0,18.224c-1.4-1.043-6.244-5.056-6.244-10.615a6.244,6.244,0,1,1,12.489,0C38.743,13.168,33.9,17.181,32.5,18.224Z" fill="#b5b5b5"/>
    <path id="Path_10490" data-name="Path 10490" d="M78.371,50.449a3.02,3.02,0,1,0,3.02,3.02A3.023,3.023,0,0,0,78.371,50.449Zm0,4.675a1.656,1.656,0,1,1,1.656-1.655A1.657,1.657,0,0,1,78.371,55.124Z" transform="translate(-45.872 -45.861)" fill="#b5b5b5"/>
  </g>
</svg>
