<svg id="tie" xmlns="http://www.w3.org/2000/svg" width="63.387" height="107.399" viewBox="0 0 63.387 107.399">
  <g id="Group_4496" data-name="Group 4496" transform="translate(0)">
    <g id="Group_4495" data-name="Group 4495">
      <path id="Path_10497" data-name="Path 10497" d="M168.011,63.583,140.2,15.871c-.017-.029-.036-.055-.054-.082l3.414-10.27A4.2,4.2,0,0,0,139.58,0H118.546a4.2,4.2,0,0,0-3.981,5.519l3.926,11.809L104.953,82.816a2.1,2.1,0,0,0,.571,1.908l22.056,22.06a2.1,2.1,0,0,0,2.967,0L152.6,84.724a2.1,2.1,0,0,0,.571-1.908L141.527,26.477l22.351,38.347-8.327,21.542a2.1,2.1,0,1,0,3.913,1.513L168.155,65.4A2.1,2.1,0,0,0,168.011,63.583ZM139.58,4.2,135.954,15.1H122.172L118.546,4.2Zm-4.605,15.1L119.081,35.191,122.367,19.3Zm-17.43,23.326a2.073,2.073,0,0,0,.24-.2l18.856-18.856,1.626,7.866-23.2,23.2Zm31.29,39.934-19.773,19.777-4.746-4.747L147.21,74.695Zm-5.279-25.537a2.135,2.135,0,0,0-.218.187L124.775,75.772a2.1,2.1,0,1,0,2.966,2.967l16.826-16.826,1.626,7.866L121.351,94.621,109.29,82.558l.207-1,21.776-21.776a2.1,2.1,0,1,0-2.967-2.967L111.043,74.08,113.519,62.1c.031-.027.062-.053.092-.083l25.673-25.673Z" transform="translate(-104.91)" fill="#eae2d0"/>
    </g>
  </g>
</svg>
