<svg id="key-2" xmlns="http://www.w3.org/2000/svg" width="57.878" height="107.399" viewBox="0 0 57.878 107.399">
  <path id="Path_10502" data-name="Path 10502" d="M47.934,73.578H37.155V56.688a28.965,28.965,0,0,0,19.2-37.034,1.573,1.573,0,0,0-2.98,1.009A25.81,25.81,0,1,1,51.019,15.6a1.573,1.573,0,1,0,2.691-1.63A28.941,28.941,0,1,0,20.722,56.688V77.754a1.573,1.573,0,0,0,3.146,0V57.433a29.056,29.056,0,0,0,10.14,0v44.481a2.341,2.341,0,0,1-2.339,2.339H30.512V63.459a1.573,1.573,0,0,0-3.146,0v40.793H26.207a2.341,2.341,0,0,1-2.338-2.339V83.628a1.573,1.573,0,0,0-3.146,0v18.286a5.491,5.491,0,0,0,5.484,5.485h5.464a5.492,5.492,0,0,0,5.442-4.811H47.934A2.688,2.688,0,0,0,50.619,99.9v-9.47a2.688,2.688,0,0,0-2.684-2.684H44.949V82.931h2.985a2.688,2.688,0,0,0,2.684-2.684V76.262A2.688,2.688,0,0,0,47.934,73.578Zm-.463,6.207H44.487A2.687,2.687,0,0,0,41.8,82.468v5.743A2.687,2.687,0,0,0,44.487,90.9h2.984v8.545H37.155V76.724H47.471Zm0,0" fill="#eae2d0"/>
  <path id="Path_10506" data-name="Path 10506" d="M111.354,50.068a9.614,9.614,0,1,0-9.614,9.615A9.625,9.625,0,0,0,111.354,50.068Zm-9.614,6.468a6.468,6.468,0,1,1,6.467-6.468A6.475,6.475,0,0,1,101.74,56.536Zm0,0" transform="translate(-72.8 -31.968)" fill="#eae2d0"/>
</svg>
