<svg xmlns="http://www.w3.org/2000/svg" width="24.39" height="24.39" viewBox="0 0 24.39 24.39">
  <g id="youtube" opacity="0.705">
    <g id="Group_4542" data-name="Group 4542">
      <path id="Path_9496" data-name="Path 9496" d="M224.113,212.608l3.967-2.285-3.967-2.285Zm0,0" transform="translate(-213.437 -198.129)" fill="#fff"/>
      <path id="Path_9497" data-name="Path 9497" d="M12.195,0A12.195,12.195,0,1,0,24.39,12.195,12.2,12.2,0,0,0,12.195,0Zm7.62,12.207a20.127,20.127,0,0,1-.314,3.666,1.909,1.909,0,0,1-1.343,1.343,46.351,46.351,0,0,1-5.963.314A44.692,44.692,0,0,1,6.232,17.2,1.91,1.91,0,0,1,4.889,15.86a20.039,20.039,0,0,1-.314-3.666,20.114,20.114,0,0,1,.314-3.666A1.948,1.948,0,0,1,6.232,7.174a46.351,46.351,0,0,1,5.963-.314,44.6,44.6,0,0,1,5.963.326A1.91,1.91,0,0,1,19.5,8.529,19.1,19.1,0,0,1,19.815,12.207Zm0,0" fill="#fff"/>
    </g>
  </g>
</svg>
